<?xml version="1.0" encoding="UTF-8" standalone="no"?>
<svg
   xmlns:dc="http://purl.org/dc/elements/1.1/"
   xmlns:cc="http://creativecommons.org/ns#"
   xmlns:rdf="http://www.w3.org/1999/02/22-rdf-syntax-ns#"
   xmlns:svg="http://www.w3.org/2000/svg"
   xmlns="http://www.w3.org/2000/svg"
   xmlns:xlink="http://www.w3.org/1999/xlink"
   xmlns:sodipodi="http://sodipodi.sourceforge.net/DTD/sodipodi-0.dtd"
   xmlns:inkscape="http://www.inkscape.org/namespaces/inkscape"
   width="210mm"
   height="297mm"
   viewBox="0 0 210 297"
   version="1.1"
   id="svg2240"
   inkscape:version="1.0.2-2 (e86c870879, 2021-01-15)"
   sodipodi:docname="logo_definitivo_degradado.svg">
  <defs
     id="defs2234">
    <linearGradient
       inkscape:collect="always"
       xlink:href="#linearGradient1644"
       id="linearGradient1638"
       x1="124.6703"
       y1="108.0941"
       x2="169.15967"
       y2="-130.58974"
       gradientUnits="userSpaceOnUse" />
    <linearGradient
       inkscape:collect="always"
       id="linearGradient1644">
      <stop
         style="stop-color:#70ba42;stop-opacity:1;"
         offset="0"
         id="stop1640" />
      <stop
         style="stop-color:#ffffff;stop-opacity:0"
         offset="1"
         id="stop1642" />
    </linearGradient>
    <linearGradient
       inkscape:collect="always"
       xlink:href="#linearGradient1644"
       id="linearGradient2073"
       gradientUnits="userSpaceOnUse"
       x1="57.983818"
       y1="133.24379"
       x2="23.616568"
       y2="254.95212"
       gradientTransform="translate(-0.30427095,0.55767381)" />
    <linearGradient
       inkscape:collect="always"
       xlink:href="#linearGradient1644"
       id="linearGradient2908"
       gradientUnits="userSpaceOnUse"
       x1="124.6703"
       y1="108.0941"
       x2="169.15967"
       y2="-130.58974" />
  </defs>
  <sodipodi:namedview
     id="base"
     pagecolor="#ffffff"
     bordercolor="#666666"
     borderopacity="1.0"
     inkscape:pageopacity="0.0"
     inkscape:pageshadow="2"
     inkscape:zoom="0.72225166"
     inkscape:cx="430.77613"
     inkscape:cy="436.80942"
     inkscape:document-units="mm"
     inkscape:current-layer="layer1"
     inkscape:document-rotation="0"
     showgrid="false"
     inkscape:window-width="1920"
     inkscape:window-height="1001"
     inkscape:window-x="-9"
     inkscape:window-y="-9"
     inkscape:window-maximized="1" />
  <metadata
     id="metadata2237">
    <rdf:RDF>
      <cc:Work
         rdf:about="">
        <dc:format>image/svg+xml</dc:format>
        <dc:type
           rdf:resource="http://purl.org/dc/dcmitype/StillImage" />
        <dc:title></dc:title>
      </cc:Work>
    </rdf:RDF>
  </metadata>
  <g
     inkscape:label="Capa 1"
     inkscape:groupmode="layer"
     id="layer1">
    <g
       id="g990"
       transform="matrix(1.1639351,0,0,1.1639351,-14.146081,-8.0279862)"
       style="fill:#538234;fill-opacity:1">
      <path
         style="fill:#538234;fill-opacity:1;stroke-width:0.264583"
         d="m 120.49662,213.5282 c 0.0743,-0.32742 1.25651,-3.45071 2.62715,-6.94064 l 2.49206,-6.34533 1.04171,-0.36122 c 7.97972,-2.76703 13.73279,-6.27555 21.51322,-13.11987 11.90606,-10.47356 21.9286,-26.1955 24.89266,-39.04805 0.31883,-1.38244 0.67845,-2.76157 0.79917,-3.06473 0.14109,-0.3543 2.45551,-1.79554 6.47946,-4.03489 3.44299,-1.91604 6.38513,-3.48371 6.5381,-3.48371 0.33654,0 0.14336,6.27778 -0.28496,9.26042 -1.66138,11.56921 -7.42092,24.53544 -15.92486,35.85104 -3.416,4.54543 -3.97014,5.18837 -8.16973,9.47883 -11.81979,12.07558 -25.92908,20.06578 -38.88007,22.01807 -3.31784,0.50015 -3.28554,0.50232 -3.12391,-0.20992 z M 17.897607,126.63327 c 0.613714,-9.51693 2.590296,-17.00039 6.945928,-26.29772 7.253242,-15.48243 20.828719,-30.457025 35.35409,-38.99776 6.998988,-4.115317 14.92197,-7.120599 21.199548,-8.041244 3.408548,-0.499884 3.826113,-0.535072 3.951029,-0.332957 0.06835,0.110587 -1.096929,3.228138 -2.589501,6.927891 l -2.713765,6.726825 -3.079655,1.093872 c -4.645268,1.649966 -10.398561,4.842251 -14.882691,8.25784 -6.618223,5.041144 -13.888013,12.590445 -18.766329,19.48787 -6.108349,8.636563 -10.22885,17.688303 -11.937867,26.224583 -0.08409,0.42002 -1.680429,1.41197 -6.386906,3.96875 -3.451135,1.87481 -6.496817,3.44783 -6.768181,3.49559 -0.463051,0.0815 -0.483078,-0.0731 -0.3257,-2.51354 z"
         id="path1002" />
      <path
         style="fill:#538234;fill-opacity:1;stroke-width:0.264583"
         d="m 120.49662,213.5282 c 0.0743,-0.32742 1.25651,-3.45071 2.62715,-6.94064 l 2.49206,-6.34533 1.04171,-0.36122 c 7.97972,-2.76703 13.73279,-6.27555 21.51322,-13.11987 11.90606,-10.47356 21.9286,-26.1955 24.89266,-39.04805 0.31883,-1.38244 0.67845,-2.76157 0.79917,-3.06473 0.14109,-0.3543 2.45551,-1.79554 6.47946,-4.03489 3.44299,-1.91604 6.38513,-3.48371 6.5381,-3.48371 0.33654,0 0.14336,6.27778 -0.28496,9.26042 -1.66138,11.56921 -7.42092,24.53544 -15.92486,35.85104 -3.416,4.54543 -3.97014,5.18837 -8.16973,9.47883 -11.81979,12.07558 -25.92908,20.06578 -38.88007,22.01807 -3.31784,0.50015 -3.28554,0.50232 -3.12391,-0.20992 z M 17.897607,126.63327 c 0.613714,-9.51693 2.590296,-17.00039 6.945928,-26.29772 7.253242,-15.48243 20.828719,-30.457025 35.35409,-38.99776 6.998988,-4.115317 14.92197,-7.120599 21.199548,-8.041244 3.408548,-0.499884 3.826113,-0.535072 3.951029,-0.332957 0.06835,0.110587 -1.096929,3.228138 -2.589501,6.927891 l -2.713765,6.726825 -3.079655,1.093872 c -4.645268,1.649966 -10.398561,4.842251 -14.882691,8.25784 -6.618223,5.041144 -13.888013,12.590445 -18.766329,19.48787 -6.108349,8.636563 -10.22885,17.688303 -11.937867,26.224583 -0.08409,0.42002 -1.680429,1.41197 -6.386906,3.96875 -3.451135,1.87481 -6.496817,3.44783 -6.768181,3.49559 -0.463051,0.0815 -0.483078,-0.0731 -0.3257,-2.51354 z"
         id="path1000" />
      <path
         style="fill:#538234;fill-opacity:1;stroke-width:0.264583"
         d="m 120.49662,213.5282 c 0.0743,-0.32742 1.25651,-3.45071 2.62715,-6.94064 l 2.49206,-6.34533 1.04171,-0.36122 c 7.97972,-2.76703 13.73279,-6.27555 21.51322,-13.11987 11.90606,-10.47356 21.9286,-26.1955 24.89266,-39.04805 0.31883,-1.38244 0.67845,-2.76157 0.79917,-3.06473 0.14109,-0.3543 2.45551,-1.79554 6.47946,-4.03489 3.44299,-1.91604 6.38513,-3.48371 6.5381,-3.48371 0.33654,0 0.14336,6.27778 -0.28496,9.26042 -1.66138,11.56921 -7.42092,24.53544 -15.92486,35.85104 -3.416,4.54543 -3.97014,5.18837 -8.16973,9.47883 -11.81979,12.07558 -25.92908,20.06578 -38.88007,22.01807 -3.31784,0.50015 -3.28554,0.50232 -3.12391,-0.20992 z M 17.897607,126.63327 c 0.613714,-9.51693 2.590296,-17.00039 6.945928,-26.29772 7.253242,-15.48243 20.828719,-30.457025 35.35409,-38.99776 6.998988,-4.115317 14.92197,-7.120599 21.199548,-8.041244 3.408548,-0.499884 3.826113,-0.535072 3.951029,-0.332957 0.06835,0.110587 -1.096929,3.228138 -2.589501,6.927891 l -2.713765,6.726825 -3.079655,1.093872 c -4.645268,1.649966 -10.398561,4.842251 -14.882691,8.25784 -6.618223,5.041144 -13.888013,12.590445 -18.766329,19.48787 -6.108349,8.636563 -10.22885,17.688303 -11.937867,26.224583 -0.08409,0.42002 -1.680429,1.41197 -6.386906,3.96875 -3.451135,1.87481 -6.496817,3.44783 -6.768181,3.49559 -0.463051,0.0815 -0.483078,-0.0731 -0.3257,-2.51354 z"
         id="path998" />
      <path
         style="fill:#538234;fill-opacity:1;stroke-width:0.264583"
         d="m 120.54956,213.84931 c -0.11077,-0.17923 4.31786,-11.70489 4.96434,-12.91986 0.24083,-0.45262 1.06714,-0.90092 2.97911,-1.61628 14.67517,-5.49071 30.22871,-20.28732 39.02093,-37.12192 3.05694,-5.85316 4.32134,-9.10351 5.67016,-14.57594 l 0.83926,-3.40508 2.23795,-1.24123 c 1.23087,-0.68267 2.77373,-1.54107 3.42857,-1.90755 5.02199,-2.81051 7.08504,-3.93169 7.23458,-3.93169 0.30232,0 0.18365,3.97623 -0.22132,7.41541 -1.94132,16.48651 -11.11165,34.08615 -24.89737,47.78285 -10.81883,10.74899 -23.28994,18.14793 -34.91737,20.71601 -2.88429,0.63704 -6.18376,1.0562 -6.33884,0.80528 z M 18.029466,126.82011 c 0,-12.5168 6.611801,-29.348177 16.633207,-42.342431 4.508406,-5.845823 10.405955,-11.943723 15.778251,-16.314269 5.857515,-4.765287 14.284658,-9.662658 20.805706,-12.091079 4.158138,-1.548479 10.726211,-3.077026 13.231233,-3.079222 l 0.96402,-8.46e-4 -2.727537,6.805547 c -2.508943,6.260123 -2.78765,6.82378 -3.477564,7.033049 -18.642854,5.654838 -38.966758,26.836326 -46.127012,48.073381 -0.564329,1.67378 -1.204445,3.92469 -1.42248,5.00204 -0.437581,2.16216 -0.56034,2.33824 -2.280741,3.27154 -9.011409,4.88858 -11.114534,6.01444 -11.235063,6.01444 -0.07811,0 -0.14202,-1.06747 -0.14202,-2.37215 z"
         id="path996" />
      <path
         style="fill:#538234;fill-opacity:1;stroke-width:0.264583"
         d="m 120.6878,213.45846 c 0,-0.22025 0.1177,-0.60721 0.26156,-0.85989 0.14387,-0.25269 1.03862,-2.4835 1.98834,-4.95735 0.94972,-2.47386 1.99288,-5.1296 2.31812,-5.90166 l 0.59135,-1.40374 2.24896,-0.7795 c 18.70545,-6.48342 39.01084,-29.35069 44.84079,-50.49823 0.51267,-1.85966 0.93213,-3.62932 0.93213,-3.93258 0,-0.30336 0.32729,-0.77731 0.7276,-1.05364 1.22077,-0.84269 11.89507,-6.67753 12.21592,-6.67753 0.20626,0 0.25871,0.51814 0.1674,1.65365 -0.0731,0.90951 -0.20017,2.76003 -0.2823,4.11227 -0.29503,4.85739 -1.95733,11.88534 -4.20594,17.782 -3.00066,7.86882 -8.68094,17.41895 -14.78981,24.86578 -2.16185,2.63534 -8.20723,8.87303 -10.21716,10.54218 -0.64391,0.53474 -1.89407,1.57482 -2.77813,2.31129 -4.16449,3.46928 -10.08942,7.2573 -15.28747,9.77385 -5.42468,2.62626 -9.35795,3.92984 -15.15949,5.0242 -2.72357,0.51376 -3.57187,0.5135 -3.57187,-0.001 z M 18.128064,125.99428 c 0.521702,-9.36953 3.133141,-18.3325 8.203245,-28.155143 12.141168,-23.521879 35.566555,-42.000752 56.500708,-44.569993 1.225724,-0.150433 2.27312,-0.228986 2.327545,-0.174562 0.148256,0.148256 -4.981157,12.949424 -5.321057,13.279437 -0.161377,0.156685 -1.305446,0.615279 -2.542373,1.019098 -4.765212,1.555694 -12.137123,5.827535 -17.457642,10.116274 -8.613037,6.942753 -17.511768,17.741682 -22.530205,27.341209 -2.545695,4.86953 -5.075204,11.54765 -5.851531,15.44853 l -0.3627,1.82249 -3.820315,2.095 c -2.101173,1.15226 -5.059667,2.76257 -6.574431,3.57849 l -2.754117,1.48347 z"
         id="path994" />
      <path
         style="fill:#538234;fill-opacity:1;stroke-width:0.264583"
         d="m 123.28918,207.11065 c 1.4069,-3.60672 2.73659,-6.65258 2.95487,-6.76858 0.21828,-0.116 1.10907,-0.42136 1.97954,-0.67857 2.28615,-0.67553 7.74549,-3.45576 11.11733,-5.66162 13.78637,-9.01902 26.6564,-25.06617 32.24366,-40.20337 0.94462,-2.55921 2.15109,-6.82545 2.38268,-8.42547 0.0704,-0.48666 0.16645,-0.91603 0.21337,-0.95416 0.0469,-0.0381 2.40701,-1.35377 5.24467,-2.92365 2.83765,-1.56988 5.67849,-3.1538 6.31297,-3.51981 l 1.15359,-0.66548 -0.13794,3.15106 c -0.30116,6.87938 -1.70626,13.41739 -4.34359,20.21089 -7.06616,18.20171 -20.92112,34.74572 -37.32087,44.56431 -7.41993,4.44235 -16.4307,7.762 -22.45008,8.27082 l -1.90819,0.1613 z M 18.167058,127.14174 C 18.83127,119.35436 19.49569,115.6803 21.18639,110.44565 25.514085,97.04648 33.650494,84.260837 44.511961,73.79159 56.246033,62.481247 69.934715,55.137373 82.315743,53.510147 c 1.232818,-0.162028 2.334146,-0.351863 2.447396,-0.421855 0.301437,-0.186299 0.247946,0.169328 -0.204444,1.35918 -0.22131,0.582083 -0.465235,1.236927 -0.542057,1.455208 -0.07682,0.218281 -1.057656,2.659062 -2.179634,5.423958 l -2.039964,5.027083 -1.581185,0.554826 c -0.869648,0.305154 -1.819306,0.65141 -2.110348,0.769457 -0.291042,0.118048 -1.08675,0.429047 -1.76824,0.691109 -3.487689,1.341166 -9.667964,5.148204 -14.10676,8.689737 -10.537438,8.407392 -20.15256,20.674436 -25.190622,32.13838 -1.511154,3.43858 -3.430286,9.16249 -3.664824,10.93052 -0.100826,0.76006 -0.317097,1.55382 -0.480603,1.76391 -0.274481,0.35267 -12.355303,7.03602 -12.718312,7.03602 -0.08878,0 -0.09287,-0.80367 -0.0091,-1.78594 z"
         id="path992" />
    </g>
    <path
       style="fill:#88bf61;fill-opacity:1;stroke-width:0.307957"
       d="m 95.894693,245.88113 c -13.156768,-1.42605 -24.289124,-4.61871 -35.569104,-10.20087 -10.49717,-5.19479 -20.1226,-12.21077 -27.84105,-20.29338 -9.01823,-9.44371 -15.48748,-19.33139 -20.42623,-31.21971 -3.9684,-9.55251 -6.81634,-22.14356 -7.08945,-31.34321 l -0.0757,-2.54915 10.16261,-5.52597 c 5.58943,-3.03928 10.30118,-5.52982 10.47056,-5.53454 0.1977,-0.006 0.30796,2.88555 0.30796,8.07511 0,8.83287 0.18152,10.54234 1.87599,17.6676 3.67452,15.45137 12.14414,29.4037 24.4544,40.28466 19.44733,17.18936 45.652614,24.03685 71.211971,18.60783 3.23623,-0.68741 3.31382,-0.69037 3.31382,-0.12616 0,0.24503 -1.18615,3.46705 -2.63588,7.16002 -1.44974,3.69298 -3.27719,8.37747 -4.06103,10.40999 -0.78383,2.03252 -1.57246,3.85608 -1.75251,4.05234 -0.91624,0.99872 -14.96615,1.33537 -22.346367,0.53544 z m 90.893847,-98.28396 c 10e-4,-7.69977 -0.9547,-15.51865 -2.51413,-20.55618 -2.35668,-7.61293 -2.8122,-8.76704 -5.71282,-14.47405 -2.16626,-4.26211 -3.87668,-7.11519 -6.09251,-10.1626 C 157.8481,82.296184 135.20954,69.905455 110.9199,68.716705 c -5.74493,-0.28116 -13.260267,0.04516 -17.091067,0.742125 -3.830886,0.696964 -7.23485,1.374619 -7.865761,1.5659 -0.775855,0.235231 -0.689829,-0.204689 0.722094,-3.692293 0.693566,-1.713173 2.559505,-6.353712 4.14653,-10.31229 1.587017,-3.95859 3.085217,-7.50226 3.329347,-7.874847 0.40365,-0.616048 0.85799,-0.710583 5.015216,-1.043515 2.514251,-0.201361 5.777021,-0.364719 7.250591,-0.363031 7.47953,0.0081 20.91009,1.85402 27.19268,3.736453 4.40418,1.319599 7.10033,2.169901 7.69894,2.42805 0.33877,0.146085 1.93244,0.77333 3.54152,1.393859 14.49641,5.590508 29.36662,16.219901 39.23433,28.045144 8.88007,10.641683 14.68392,21.00336 18.87067,33.69008 2.29287,6.94791 4.25769,17.07717 4.47943,23.09299 l 0.085,2.30583 -7.08304,3.95501 c -3.89566,2.17526 -8.12238,4.51938 -9.39271,5.20914 -1.27033,0.68977 -2.58304,1.44084 -2.91713,1.66907 -1.30799,0.8935 -1.34932,0.71973 -1.34799,-5.66721 z"
       id="path1110" />
    <g
       id="g1142"
       transform="matrix(1.1639351,0,0,1.1639351,-70.931931,67.331331)"
       style="fill:url(#linearGradient1638);fill-opacity:1">
      <path
         style="fill:url(#linearGradient2908);fill-opacity:1;stroke-width:0.264583"
         d="m 118.6679,118.13285 c -0.62353,-0.84404 -1.04064,-1.67278 -0.97269,-1.93262 0.09,-0.34415 36.71021,-46.667083 38.77536,-49.049097 0.36559,-0.421683 0.36535,-0.55467 -0.002,-1.322917 -0.34919,-0.729517 -26.93225,-37.765415 -29.87651,-41.624384 -1.26129,-1.653132 -1.31263,-2.467136 -0.21394,-3.391625 0.61669,-0.518909 1.1081,-0.684977 2.02692,-0.684977 2.63271,0 51.25534,4.533802 51.58858,4.810361 0.2795,0.23197 0.34708,2.112438 0.33217,9.243769 -0.0166,7.953494 -0.0675,9.001313 -0.45558,9.389436 -0.37097,0.370967 -0.79814,0.40967 -2.8314,0.25654 -1.31699,-0.09919 -2.48916,-0.27459 -2.60482,-0.389784 -0.11566,-0.115197 -0.26399,-0.848136 -0.32961,-1.628754 -0.25828,-3.072485 -1.77791,-7.650674 -3.17753,-9.57293 -1.15906,-1.591879 -2.56445,-2.520463 -4.52449,-2.989466 -0.85122,-0.203679 -6.99434,-0.757415 -13.6514,-1.230527 -11.09897,-0.788795 -12.13889,-0.825032 -12.52739,-0.436541 -0.32773,0.327731 -0.35945,0.543634 -0.14009,0.953502 0.15595,0.291415 5.72583,8.312256 12.37749,17.824099 6.65166,9.51184 12.36974,17.697824 12.70685,18.191073 0.84497,1.236345 0.79386,2.327733 -0.15564,3.323919 -0.84618,0.887777 -25.13291,34.425273 -25.36205,35.022393 -0.11332,0.29531 0.0421,0.33235 0.75703,0.18047 5.8717,-1.24732 26.98872,-6.080564 28.33185,-6.484564 1.98059,-0.59575 2.94793,-1.40113 3.84154,-3.19837 0.75954,-1.52759 1.40227,-4.02771 1.40227,-5.45459 0,-1.13416 8e-4,-1.13503 0.98708,-1.13503 0.54289,0 1.6297,0.26635 2.41513,0.59189 l 1.42805,0.5919 -0.18944,7.94091 c -0.10419,4.367514 -0.26826,8.021244 -0.3646,8.119404 -0.13916,0.1418 -58.00049,15.56423 -58.3933,15.56423 -0.0582,0 -0.59705,-0.66497 -1.19746,-1.47772 z"
         id="path1144" />
    </g>
    <path
       id="path1190-6"
       style="fill:url(#linearGradient2073);fill-opacity:1;stroke-width:0.307414"
       d="m 77.780823,90.819336 c -0.61724,0.20293 -0.60913,0.196395 -0.87592,0.343648 0.012,0.0011 0.0242,0.0021 0.0362,0.0031 -0.0362,-0.0031 -0.0362,-0.0031 0.67958,-0.125412 3.09821,-0.09931 37.078817,3.225744 37.078817,3.225744 9.41111,0.852212 17.3858,1.598467 17.72192,1.658297 0.3361,0.05994 -0.14486,0.110355 -1.06919,0.112654 -1.72913,0.0041 -11.98346,-0.824063 -27.80554,-2.245857 -4.957661,-0.445508 -10.935147,-0.928312 -13.283417,-1.072803 -2.54446,-0.162034 -7.94858,-0.61372 -8.73022,-0.716751 -1.2867,0.04336 -1.79157,0.182181 -1.99523,0.282154 -0.004,0.0047 -0.005,0.0092 -0.009,0.01394 -0.0803,0.10052 -0.15332,0.206266 -0.22324,0.314192 -0.0142,0.02196 -0.0271,0.04494 -0.0424,0.06615 -0.0335,0.04634 -0.0692,0.09098 -0.10386,0.136427 -0.0178,0.02143 -0.036,0.04257 -0.0538,0.06408 0.44501,0.180695 0.85976,0.490233 1.19321,1.000456 0.65098,1.019304 12.34726,17.703075 26.612327,37.960985 2.63527,3.74236 5.15936,7.36095 5.60896,8.04137 0.44961,0.68043 1.22683,1.85665 1.72754,2.6138 1.34997,2.04135 1.23947,3.14955 -0.58653,5.87613 -1.59619,2.38348 -43.884411,57.10513 -44.360081,57.4027 -0.15502,0.097 -0.28215,0.30711 -0.28215,0.46715 0,0.16007 0.15163,0.29094 0.33641,0.29094 0.30972,0 17.121224,-4.48128 52.771971,-14.06684 7.78233,-2.09248 14.22529,-3.88083 14.31799,-3.97443 0.18493,-0.18719 0.29082,-2.08531 0.5519,-9.87175 0.14944,-4.45597 0.11048,-5.18056 -0.28008,-5.18056 -0.49303,0 -1.08676,0.91186 -1.08676,1.66914 0,0.9908 -1.32401,3.99376 -2.21226,5.01779 -1.22024,1.40671 -1.88292,1.74877 -3.89899,2.01073 -1.80983,0.23516 -39.488747,8.71958 -40.459547,9.11055 -0.75517,0.30415 -0.56149,-0.0373 1.50689,-2.65307 0.87428,-1.1057 3.41895,-4.58485 5.65495,-7.73182 2.235986,-3.14699 6.014017,-8.43622 8.395347,-11.75329 2.38135,-3.31709 6.91355,-9.64976 10.07122,-14.07253 3.15771,-4.42278 6.13662,-8.4162 6.61975,-8.8744 1.36881,-1.29821 1.25364,-1.83433 -1.12602,-5.24826 -0.51421,-0.73765 -1.60641,-2.3155 -2.42725,-3.50625 -0.82081,-1.19075 -4.37307,-6.34052 -7.89357,-11.44374 -3.5205,-5.10321 -8.34063,-12.10033 -10.711491,-15.54944 -2.370846,-3.44907 -4.963656,-7.20301 -5.761916,-8.34213 -0.79828,-1.13911 -1.45159,-2.152816 -1.45159,-2.252566 0,-0.0998 0.17519,-0.423716 0.38912,-0.719856 0.41573,-0.575484 -0.32368,-0.615124 26.146717,1.391122 3.84582,0.29161 4.75896,0.0101 5.26773,-0.12687 0.95983,-0.25835 3.30738,-0.29444 4.742,0.40851 3.81038,1.86708 6.53429,7.3726 6.76392,14.16968 l -0.045,3.36362 1.68361,0.0527 c 0,0 1.26529,0.2353 1.65055,-0.38395 0.77513,-1.24592 0.21091,-4.95955 0.33021,-10.57971 0.24114,-11.36081 0.21224,-11.58637 -1.50482,-11.58637 -0.54947,0 -13.91659,-1.182534 -29.70464,-2.627747 C 91.867173,91.735505 78.006233,90.816774 77.781053,90.819081 Z"
       sodipodi:nodetypes="cccccccsccccsscccsssssssscsssssssssssssssssscsscccsssscc" />
  </g>
</svg>
