<?xml version="1.0" encoding="iso-8859-1"?>
<!-- Generator: Adobe Illustrator 19.0.0, SVG Export Plug-In . SVG Version: 6.00 Build 0)  -->
<svg version="1.1" id="Layer_1" xmlns="http://www.w3.org/2000/svg" xmlns:xlink="http://www.w3.org/1999/xlink" x="0px" y="0px"
	 viewBox="0 0 512 512" style="enable-background:new 0 0 512 512;" xml:space="preserve">
<g>
	<g>
		<path d="M134.464,121.538c-2.125-2.127-5.281-3.109-8.252-2.516c-0.571,0.138-1.165,0.297-1.714,0.527
			c-0.549,0.228-1.074,0.525-1.576,0.846c-0.504,0.341-0.96,0.707-1.395,1.143c-1.692,1.69-2.674,4.045-2.674,6.469
			c0,2.4,0.982,4.754,2.674,6.444c0.435,0.435,0.891,0.824,1.395,1.143c0.502,0.344,1.027,0.618,1.576,0.846
			c0.549,0.23,1.143,0.413,1.714,0.527c0.594,0.114,1.19,0.183,1.784,0.183c2.422,0,4.777-0.984,6.469-2.699
			c1.714-1.69,2.674-4.045,2.674-6.444C137.139,125.583,136.179,123.228,134.464,121.538z"/>
	</g>
</g>
<g>
	<g>
		<path d="M237.527,62.223c-0.114-0.594-0.275-1.165-0.502-1.714c-0.23-0.549-0.527-1.098-0.846-1.578
			c-0.344-0.502-0.71-0.982-1.143-1.393c-0.411-0.413-0.893-0.801-1.395-1.143c-0.48-0.321-1.029-0.618-1.576-0.846
			c-0.549-0.23-1.121-0.389-1.714-0.527c-1.168-0.228-2.377-0.228-3.567,0c-0.571,0.138-1.165,0.297-1.714,0.527
			c-0.549,0.228-1.074,0.525-1.576,0.846c-0.504,0.341-0.96,0.73-1.395,1.143c-0.411,0.411-0.799,0.891-1.12,1.393
			c-0.341,0.48-0.616,1.029-0.846,1.578c-0.228,0.549-0.411,1.12-0.525,1.714c-0.114,0.571-0.183,1.187-0.183,1.784
			c0,0.594,0.069,1.187,0.183,1.781c0.114,0.571,0.297,1.143,0.525,1.714c0.23,0.549,0.504,1.076,0.846,1.578
			c0.321,0.502,0.71,0.96,1.12,1.395c0.435,0.411,0.891,0.799,1.395,1.118c0.502,0.344,1.027,0.618,1.576,0.846
			c0.549,0.23,1.143,0.413,1.714,0.527c0.594,0.114,1.19,0.183,1.784,0.183c0.594,0,1.187-0.069,1.784-0.183
			c0.594-0.114,1.165-0.297,1.714-0.527c0.547-0.228,1.074-0.502,1.576-0.846c0.502-0.319,0.96-0.708,1.395-1.118
			c0.411-0.435,0.799-0.893,1.143-1.395c0.319-0.502,0.616-1.029,0.846-1.578c0.228-0.571,0.388-1.143,0.502-1.714
			c0.136-0.594,0.183-1.188,0.183-1.781C237.71,63.411,237.663,62.795,237.527,62.223z"/>
	</g>
</g>
<g>
	<g>
		<path d="M189.322,414.11c-2.125-2.127-5.281-3.11-8.252-2.516c-0.571,0.138-1.165,0.297-1.714,0.527
			c-0.549,0.228-1.074,0.525-1.576,0.846c-0.504,0.341-0.96,0.73-1.395,1.143c-0.411,0.411-0.799,0.891-1.12,1.393
			c-0.341,0.48-0.616,1.029-0.846,1.578c-0.228,0.549-0.411,1.12-0.525,1.714c-0.114,0.571-0.183,1.187-0.183,1.784
			c0,2.4,0.982,4.754,2.674,6.469c1.714,1.69,4.069,2.674,6.469,2.674c0.594,0,1.187-0.069,1.784-0.183
			c0.594-0.116,1.165-0.297,1.714-0.527c0.547-0.228,1.096-0.502,1.576-0.846c0.502-0.319,0.96-0.708,1.395-1.118
			c0.411-0.435,0.799-0.893,1.143-1.395c0.319-0.502,0.616-1.029,0.846-1.578c0.228-0.547,0.388-1.143,0.502-1.714
			c0.136-0.594,0.183-1.188,0.183-1.781C191.996,418.154,191.013,415.799,189.322,414.11z"/>
	</g>
</g>
<g>
	<g>
		<path d="M326.464,423.252c-1.714-1.714-4.069-2.674-6.469-2.674s-4.755,0.96-6.469,2.674c-1.692,1.69-2.674,4.045-2.674,6.469
			c0,0.594,0.069,1.187,0.183,1.781c0.114,0.571,0.297,1.143,0.525,1.714c0.23,0.549,0.504,1.076,0.846,1.578
			c0.321,0.502,0.71,0.96,1.12,1.395c1.714,1.69,4.069,2.65,6.469,2.65c0.594,0,1.187-0.045,1.784-0.158
			c0.594-0.116,1.165-0.297,1.714-0.527c0.547-0.228,1.096-0.502,1.576-0.846c0.502-0.319,0.984-0.708,1.395-1.118
			c0.433-0.435,0.799-0.893,1.143-1.395c0.319-0.502,0.616-1.029,0.846-1.578c0.228-0.547,0.388-1.143,0.502-1.714
			c0.136-0.594,0.183-1.188,0.183-1.781C329.138,427.297,328.156,424.942,326.464,423.252z"/>
	</g>
</g>
<g>
	<g>
		<path d="M328.956,217.63c-0.114-0.571-0.297-1.143-0.527-1.692c-0.205-0.549-0.502-1.098-0.821-1.578
			c-0.344-0.502-0.71-0.982-1.143-1.393c-0.411-0.413-0.893-0.801-1.395-1.143c-0.48-0.321-1.029-0.618-1.576-0.846
			c-0.549-0.23-1.121-0.389-1.714-0.502c-1.168-0.252-2.377-0.252-3.567,0c-0.594,0.114-1.165,0.272-1.714,0.502
			c-0.549,0.228-1.074,0.525-1.576,0.846c-0.504,0.341-0.96,0.73-1.395,1.143c-0.411,0.411-0.799,0.891-1.12,1.393
			c-0.341,0.48-0.616,1.007-0.846,1.578c-0.228,0.549-0.411,1.12-0.525,1.692c-0.114,0.594-0.183,1.21-0.183,1.806
			c0,0.594,0.069,1.187,0.183,1.781c0.114,0.571,0.297,1.167,0.525,1.714c0.23,0.549,0.504,1.076,0.846,1.578
			c0.321,0.502,0.71,0.96,1.12,1.371c0.435,0.435,0.891,0.824,1.395,1.143c0.502,0.344,1.027,0.618,1.576,0.846
			c0.549,0.23,1.12,0.413,1.714,0.527s1.19,0.183,1.784,0.183c0.594,0,1.187-0.069,1.784-0.183c0.594-0.114,1.165-0.297,1.714-0.527
			c0.547-0.228,1.074-0.502,1.576-0.846c0.502-0.319,0.96-0.708,1.395-1.143c0.41-0.411,0.799-0.868,1.143-1.371
			c0.319-0.502,0.594-1.029,0.821-1.578c0.23-0.571,0.413-1.143,0.527-1.714c0.136-0.594,0.183-1.188,0.183-1.781
			C329.139,218.839,329.092,218.223,328.956,217.63z"/>
	</g>
</g>
<g>
	<g>
		<path d="M256,0C114.842,0,0,114.842,0,256c0,141.159,114.842,256,256,256c141.159,0,256-114.841,256-256
			C512,114.842,397.159,0,256,0z M256,493.714C124.924,493.714,18.286,387.076,18.286,256S124.924,18.286,256,18.286
			S493.714,124.924,493.714,256S387.076,493.714,256,493.714z"/>
	</g>
</g>
<g>
	<g>
		<path d="M187.991,337.415l-77.676-77.676c-14.23-14.23-37.408-14.212-51.669,0.049c-14.259,14.257-14.281,37.435-0.051,51.669
			h0.002l77.676,77.676c7.107,7.109,16.446,10.661,25.79,10.661c9.368,0,18.743-3.571,25.882-10.71
			C202.203,374.826,202.226,351.647,187.991,337.415z M175.016,376.156c-7.132,7.125-18.71,7.154-25.815,0.049l-77.676-77.676h0.002
			c-7.103-7.103-7.08-18.683,0.047-25.813c7.13-7.129,18.71-7.152,25.813-0.049l77.676,77.676
			C182.165,357.449,182.145,369.027,175.016,376.156z"/>
	</g>
</g>
<g>
	<g>
		<path d="M434.848,145.415l-77.676-77.676c-14.228-14.23-37.406-14.212-51.669,0.049c-14.259,14.257-14.281,37.435-0.051,51.669
			h0.002l77.676,77.676c7.107,7.109,16.446,10.661,25.79,10.661c9.368,0,18.743-3.571,25.882-10.71
			C449.06,182.826,449.083,159.647,434.848,145.415z M421.873,184.156c-7.13,7.127-18.71,7.154-25.815,0.049l-77.676-77.676h0.002
			c-7.103-7.103-7.08-18.683,0.047-25.813c7.13-7.132,18.71-7.149,25.813-0.049l77.676,77.676
			C429.022,165.449,429.002,177.027,421.873,184.156z"/>
	</g>
</g>
<g>
	<g>
		<path d="M297.659,150.074c-14.259-14.261-37.44-14.284-51.672-0.049l-77.679,77.676c-14.23,14.234-14.208,37.413,0.051,51.669
			c7.138,7.141,16.511,10.71,25.879,10.71c9.344,0,18.685-3.554,25.79-10.661l77.676-77.676
			C311.94,187.511,311.917,164.333,297.659,150.074z M284.777,188.815l-77.676,77.676c-7.101,7.103-18.681,7.08-25.813-0.049
			c-7.127-7.13-7.149-18.71-0.049-25.813l77.676-77.819c3.429-3.426,7.993-5.455,12.859-5.455c0.009,0,0.02,0,0.031,0
			c4.884,0,9.473,2.056,12.924,5.504C291.859,169.989,291.88,181.71,284.777,188.815z"/>
	</g>
</g>
<g>
	<g>
		<path d="M393.212,319.641H283.36c-20.127,0-36.502,16.406-36.502,36.571c0,20.165,16.375,36.571,36.502,36.571h109.853
			c20.127,0,36.502-16.406,36.502-36.571C429.714,336.047,413.339,319.641,393.212,319.641z M393.212,374.498H283.36
			c-10.045,0-18.217-8.203-18.217-18.286s8.172-18.286,18.217-18.286h109.853c10.045,0,18.216,8.203,18.216,18.286
			S403.257,374.498,393.212,374.498z"/>
	</g>
</g>
<g>
</g>
<g>
</g>
<g>
</g>
<g>
</g>
<g>
</g>
<g>
</g>
<g>
</g>
<g>
</g>
<g>
</g>
<g>
</g>
<g>
</g>
<g>
</g>
<g>
</g>
<g>
</g>
<g>
</g>
</svg>
