<?xml version="1.0" encoding="iso-8859-1"?>
<!-- Generator: Adobe Illustrator 19.0.0, SVG Export Plug-In . SVG Version: 6.00 Build 0)  -->
<svg version="1.1" id="Layer_1" xmlns="http://www.w3.org/2000/svg" xmlns:xlink="http://www.w3.org/1999/xlink" x="0px" y="0px"
	 viewBox="0 0 512 512" style="enable-background:new 0 0 512 512;" xml:space="preserve">
<g>
	<g>
		<path d="M255.999,0.001C114.841,0.001,0,114.842,0,256c0,48.407,13.579,95.542,39.267,136.305
			c2.77,4.395,8.579,5.714,12.975,2.944c4.395-2.77,5.714-8.579,2.944-12.975C31.392,344.517,18.816,300.853,18.816,256
			c0-130.783,106.401-237.184,237.184-237.184S493.183,125.217,493.183,256S386.782,493.184,255.999,493.184
			c-71.393,0-138.311-31.714-183.597-87.012c-3.291-4.02-9.22-4.611-13.239-1.317c-4.02,3.291-4.61,9.22-1.317,13.239
			c48.874,59.678,121.098,93.906,198.154,93.906C397.16,511.999,512,397.158,512,256S397.159,0.001,255.999,0.001z"/>
	</g>
</g>
<g>
	<g>
		<path d="M449.61,169.397c-2.124-4.743-7.692-6.861-12.432-4.74c-4.742,2.124-6.864,7.689-4.739,12.432
			c11.143,24.874,16.792,51.424,16.792,78.911c0,106.547-86.682,193.231-193.231,193.231C149.453,449.231,62.77,362.547,62.77,256
			S149.452,62.771,255.999,62.771c64.68,0,124.782,32.149,160.773,86c2.89,4.319,8.732,5.482,13.05,2.593
			c4.319-2.886,5.48-8.729,2.593-13.049c-39.489-59.086-105.44-94.36-176.416-94.36C139.077,43.954,43.953,139.076,43.953,256
			s95.123,212.046,212.046,212.046S468.046,372.922,468.046,256C468.046,225.844,461.843,196.706,449.61,169.397z"/>
	</g>
</g>
<g>
	<g>
		<path d="M290.611,124.272c-23.493,0-44.587,13.981-53.738,35.619c-2.023,4.785,0.214,10.305,5,12.329
			c4.787,2.026,10.306-0.214,12.329-5c6.2-14.661,20.491-24.133,36.408-24.133c21.786,0,39.51,17.724,39.51,39.51
			s-17.724,39.51-39.51,39.51c-15.917,0-30.208-9.473-36.408-24.134c-2.025-4.785-7.545-7.026-12.329-5
			c-4.785,2.025-7.024,7.544-5,12.329c9.152,21.638,30.245,35.62,53.738,35.62c32.16,0,58.326-26.165,58.326-58.326
			C348.937,150.437,322.772,124.272,290.611,124.272z"/>
	</g>
</g>
<g>
	<g>
		<path d="M198.89,279.492c-23.084,0-41.863,18.779-41.863,41.863c0,23.084,18.779,41.863,41.863,41.863
			c23.083,0,41.863-18.78,41.863-41.863C240.754,298.272,221.975,279.492,198.89,279.492z M198.89,344.403
			c-12.709,0-23.048-10.34-23.048-23.048s10.339-23.048,23.048-23.048c12.708,0,23.048,10.339,23.048,23.048
			S211.6,344.403,198.89,344.403z"/>
	</g>
</g>
<g>
	<g>
		<path d="M144.998,177.893c-18.526,0-33.597,15.071-33.597,33.597c0,18.526,15.071,33.597,33.597,33.597
			c18.526,0,33.597-15.071,33.597-33.597C178.595,192.964,163.523,177.893,144.998,177.893z M144.998,226.271
			c-8.151,0-14.781-6.631-14.781-14.781s6.631-14.781,14.781-14.781c8.151,0,14.781,6.631,14.781,14.781
			S153.149,226.271,144.998,226.271z"/>
	</g>
</g>
<g>
	<g>
		<path d="M347.996,261.617c-26.456,0-47.978,21.523-47.978,47.978c0,26.456,21.522,47.978,47.978,47.978
			c26.455,0,47.977-21.522,47.977-47.978S374.451,261.617,347.996,261.617z M347.996,338.76c-16.08,0-29.163-13.082-29.163-29.163
			c0-16.081,13.082-29.163,29.163-29.163c16.08,0,29.162,13.082,29.162,29.163S364.076,338.76,347.996,338.76z"/>
	</g>
</g>
<g>
	<g>
		<circle cx="377.164" cy="188.231" r="9.408"/>
	</g>
</g>
<g>
	<g>
		<circle cx="279.323" cy="380.15" r="9.408"/>
	</g>
</g>
<g>
	<g>
		<circle cx="205.942" cy="240.049" r="9.408"/>
	</g>
</g>
<g>
</g>
<g>
</g>
<g>
</g>
<g>
</g>
<g>
</g>
<g>
</g>
<g>
</g>
<g>
</g>
<g>
</g>
<g>
</g>
<g>
</g>
<g>
</g>
<g>
</g>
<g>
</g>
<g>
</g>
</svg>
